<?xml version="1.0" standalone="no"?><!DOCTYPE svg PUBLIC "-//W3C//DTD SVG 1.1//EN" "http://www.w3.org/Graphics/SVG/1.1/DTD/svg11.dtd"><svg t="1624261596420" class="icon" viewBox="0 0 1024 1024" version="1.1" xmlns="http://www.w3.org/2000/svg" p-id="1165" width="32" height="32" xmlns:xlink="http://www.w3.org/1999/xlink"><defs><style type="text/css"></style></defs><path d="M974.40064 711.68c27.136 0 49.6 22.272 49.6 49.408a49.984 49.984 0 0 1-49.6 50.368H255.55264a49.984 49.984 0 0 1-49.6-50.368c0-27.136 22.4-49.472 49.6-49.472h718.848zM63.68064 128a63.68 63.68 0 0 1 0 127.296A63.68 63.68 0 0 1 0.00064 191.616C0.00064 157.056 28.99264 128 63.61664 128z m191.872 121.152a50.176 50.176 0 0 1-49.6-49.92c0-27.136 22.4-49.856 49.6-49.856h718.848c27.136 0 49.6 22.72 49.6 49.92 0 27.136-22.464 49.92-49.6 49.92H255.55264z m0 299.392a50.176 50.176 0 0 1-49.6-49.92c0-27.136 22.4-49.856 49.6-49.856h718.848c27.136 0 49.6 22.72 49.6 49.92 0 27.136-22.464 49.92-49.6 49.92H255.55264zM63.61664 417.28a63.744 63.744 0 0 1 0 127.36c-34.56 0-63.616-29.056-63.616-63.68 0-35.584 28.992-63.68 63.616-63.68z m0 288.32a63.744 63.744 0 0 1 0 127.296 63.68 63.68 0 0 1-63.616-63.68c0-34.56 28.992-63.616 63.616-63.616z" fill="#ffffff" p-id="1166"></path></svg>